<?xml version="1.0" standalone="no"?>
<!DOCTYPE svg PUBLIC "-//W3C//DTD SVG 20010904//EN"
 "http://www.w3.org/TR/2001/REC-SVG-20010904/DTD/svg10.dtd">
<svg version="1.0" xmlns="http://www.w3.org/2000/svg"
 width="75.000000pt" height="75.000000pt" viewBox="0 0 75.000000 75.000000"
 preserveAspectRatio="xMidYMid meet">
<metadata>
Created by potrace 1.11, written by Peter Selinger 2001-2013
</metadata>
<g transform="translate(0.000000,75.000000) scale(0.100000,-0.100000)"
fill="#000000" stroke="none">
<path d="M581 737 c-12 -15 -52 -26 -103 -30 -14 -1 -37 -12 -50 -24 -16 -15
-37 -23 -60 -23 -27 0 -42 -7 -57 -26 l-20 -26 -33 31 c-18 17 -35 31 -38 31
-3 -1 -25 -19 -49 -41 -41 -37 -43 -41 -32 -65 17 -38 -10 -66 -59 -62 -30 3
-35 0 -38 -20 -2 -13 0 -31 4 -40 4 -9 6 -23 5 -31 -1 -7 5 -31 14 -53 19 -48
13 -71 -20 -86 -36 -16 -31 -40 17 -83 38 -36 40 -41 29 -65 -15 -34 -8 -43
41 -51 28 -4 53 -17 75 -39 28 -29 37 -32 58 -24 16 6 34 6 51 0 20 -8 33 -6
55 7 28 17 31 17 60 0 42 -24 54 -22 79 13 12 17 35 37 51 45 19 10 29 23 29
38 0 14 18 38 52 67 86 75 90 79 82 103 -3 12 -12 28 -19 36 -11 11 -16 9 -30
-13 -38 -57 -64 -19 -38 55 15 42 16 53 4 85 -12 33 -12 39 4 50 20 15 55 78
55 99 0 26 -59 12 -85 -21 -15 -19 -84 -22 -95 -4 -15 23 -12 28 24 40 61 20
112 129 65 138 -9 1 -21 -4 -28 -11z m3 -72 c-19 -26 -35 -35 -58 -37 -30 -1
-56 -3 -84 -7 -14 -1 -32 -40 -25 -57 7 -19 53 -23 69 -6 14 13 16 12 21 -7 4
-16 10 -20 22 -15 21 9 31 9 63 1 23 -6 28 -4 34 17 3 13 13 27 22 30 10 3 22
9 29 12 7 3 10 -2 6 -15 -3 -11 -14 -23 -25 -27 -11 -3 -17 -12 -14 -20 3 -7
-4 -18 -14 -24 -21 -11 -27 -54 -10 -65 19 -12 10 -24 -22 -33 -24 -6 -34 -15
-36 -32 -3 -16 -6 -19 -12 -10 -6 9 -37 -16 -110 -89 l-102 -102 -37 24 c-20
13 -58 45 -86 70 l-50 45 24 26 c36 39 57 41 96 12 44 -34 55 -33 92 7 35 37
83 101 83 110 0 16 -64 37 -112 37 -82 0 -141 -39 -191 -124 l-18 -31 6 36 c7
36 6 36 -38 49 -30 8 -47 19 -50 31 -5 17 -1 19 27 13 23 -4 38 -1 49 10 9 9
22 15 29 14 15 -3 12 39 -3 58 -6 7 2 24 24 48 36 39 47 44 47 21 0 -8 7 -15
15 -15 17 0 20 -16 5 -25 -17 -10 -1 -25 26 -25 19 0 28 8 40 35 13 32 18 35
55 35 30 0 46 6 64 26 16 17 30 24 41 20 9 -4 27 0 40 9 13 8 30 12 38 9 8 -3
23 3 33 13 17 17 18 17 21 1 2 -10 -9 -33 -24 -53z m-114 -73 c0 -13 -12 -22
-22 -16 -10 6 -1 24 13 24 5 0 9 -4 9 -8z m159 -199 c0 -5 -4 -17 -9 -28 -8
-18 -9 -17 -9 8 -1 15 4 27 9 27 6 0 10 -3 9 -7z m-488 -108 c3 -60 12 -78 67
-131 78 -76 204 -71 320 12 34 25 29 -6 -7 -40 -41 -39 -170 -66 -246 -52 -44
9 -131 77 -139 110 -4 15 -15 35 -26 46 -25 25 -25 55 0 80 11 11 20 25 20 32
0 6 2 9 4 7 2 -2 6 -31 7 -64z m483 -17 c24 -17 47 -7 61 25 8 17 14 25 15 17
0 -8 3 -24 5 -35 4 -15 -2 -24 -25 -37 -25 -14 -30 -15 -30 -3 0 11 -6 12 -26
5 -14 -6 -29 -10 -33 -10 -15 0 -19 52 -8 78 l11 24 10 -28 c5 -16 14 -32 20
-36z"/>
<path d="M340 550 c0 -5 9 -10 20 -10 11 0 20 5 20 10 0 6 -9 10 -20 10 -11 0
-20 -4 -20 -10z"/>
<path d="M213 523 c-15 -5 -18 -33 -4 -33 13 0 33 28 24 33 -4 2 -14 2 -20 0z"/>
</g>
</svg>
